<svg xmlns="http://www.w3.org/2000/svg" viewBox="0 0 120 120" fill="none" stroke="#0b1324" stroke-width="4" stroke-linecap="round" stroke-linejoin="round"><path d="M43 12h34v14l-8 12v50c0 11-8 18-18 18H36c-10 0-18-7-18-18V38l-8-12V12h33"/><path d="M23 74c13-7 23 6 38-3 4-2 8-3 8-3v20c0 8-6 13-14 13H37c-8 0-14-5-14-13V74z" fill="#0b1324" stroke="none"/><circle cx="42" cy="82" r="3" fill="#fff" stroke="none"/><circle cx="56" cy="90" r="4" fill="#fff" stroke="none"/><circle cx="36" cy="62" r="3" fill="#0b1324" stroke="none"/><path d="M88 23c10 12 16 22 16 30 0 9-7 16-16 16s-16-7-16-16c0-8 6-18 16-30z"/></svg>
